<?xml version="1.0" encoding="UTF-8" standalone="no"?>
<!DOCTYPE svg PUBLIC "-//W3C//DTD SVG 1.1//EN" "http://www.w3.org/Graphics/SVG/1.1/DTD/svg11.dtd">
<!-- Created with Vectornator (http://vectornator.io/) -->
<svg height="100%" stroke-miterlimit="10" style="fill-rule:nonzero;clip-rule:evenodd;stroke-linecap:round;stroke-linejoin:round;" version="1.1" viewBox="0 0 512 134.095" width="100%" xml:space="preserve" xmlns="http://www.w3.org/2000/svg" xmlns:vectornator="http://vectornator.io" xmlns:xlink="http://www.w3.org/1999/xlink">
<defs/>
<clipPath id="ArtboardFrame">
<rect height="134.095" width="512" x="0" y="0"/>
</clipPath>
<g clip-path="url(#ArtboardFrame)" id="Layer-1" vectornator:layerName="Layer 1">
<g opacity="1">
<path d="M0.00481016 115.956L0 0L57.293 0.15489L57.2854 102.915L44.7722 102.658L45.0671 11.53L12.5028 11.3288L12.5196 112.348L0.00481016 115.956Z" fill="#578cd9" fill-rule="nonzero" opacity="1" stroke="none"/>
<path d="M25.0188 107.666L25.325 58.0434L91.032 22.9292L152.671 55.3909L137.535 55.4258L91.1242 30.3104L32.444 61.9341L32.8515 104.76L25.0188 107.666Z" fill="#badaff" fill-rule="nonzero" opacity="1" stroke="none" vectornator:blendMode="lighten"/>
<path d="M0 115.846C0 115.846 60.5121 91.9166 105.489 91.9166C150.466 91.9166 176.204 105.251 225.065 95.5297C225.065 95.5297 208.845 108.474 129.277 100.412C77.0701 95.1223 0 115.846 0 115.846Z" fill="#badaff" fill-rule="nonzero" opacity="1" stroke="none" vectornator:blendMode="lighten"/>
<path d="M0.10942 119.862C0.10942 119.862 35.9303 103.866 106.383 103.321C147.873 103.001 165.277 111.44 188.814 107.007C188.814 107.007 196.176 112.393 126.358 108.712C67.2148 105.593 0.10942 119.862 0.10942 119.862Z" fill="#578cd9" fill-rule="nonzero" opacity="1" stroke="none"/>
<path d="M251.783 134.071C248.487 134.071 245.573 133.524 243.041 132.43C240.557 131.337 238.598 129.81 237.165 127.851C235.732 125.892 234.968 123.704 234.872 121.289L240.175 121.289C240.414 123.614 241.488 125.664 243.4 127.441C245.31 129.173 248.105 130.038 251.783 130.038C255.175 130.038 257.85 129.218 259.809 127.578C261.815 125.892 262.818 123.773 262.818 121.221C262.818 119.171 262.269 117.53 261.17 116.3C260.071 115.024 258.71 114.09 257.085 113.498C255.462 112.86 253.217 112.176 250.35 111.447C247.006 110.581 244.354 109.738 242.396 108.918C240.437 108.098 238.765 106.822 237.38 105.091C235.994 103.359 235.302 101.012 235.302 98.0504C235.302 95.5904 235.971 93.4031 237.308 91.4886C238.646 89.5292 240.533 88.003 242.969 86.9096C245.406 85.8163 248.201 85.2688 251.353 85.2688C255.987 85.2688 259.713 86.3627 262.532 88.55C265.398 90.6914 267.046 93.4714 267.476 96.8882L262.03 96.8882C261.695 94.9293 260.573 93.1977 258.662 91.694C256.751 90.1449 254.172 89.3706 250.923 89.3706C247.914 89.3706 245.406 90.1449 243.4 91.694C241.393 93.1977 240.39 95.2708 240.39 97.9138C240.39 99.9191 240.939 101.536 242.038 102.767C243.137 103.997 244.498 104.931 246.122 105.569C247.794 106.207 250.039 106.89 252.858 107.62C256.106 108.485 258.734 109.351 260.74 110.217C262.747 111.037 264.442 112.313 265.828 114.044C267.213 115.775 267.906 118.1 267.906 121.016C267.906 123.249 267.285 125.368 266.043 127.372C264.801 129.377 262.962 130.995 260.525 132.225C258.089 133.456 255.175 134.071 251.783 134.071ZM338.793 85.8163L338.793 89.78L324.892 89.78L324.892 133.592L319.876 133.592L319.876 89.78L305.903 89.78L305.903 85.8163L338.793 85.8163ZM407.622 122.246L384.835 122.246L380.464 133.592L375.161 133.592L393.434 86.431L399.095 86.431L417.296 133.592L411.993 133.592L407.622 122.246ZM406.117 118.282L396.228 92.4459L386.34 118.282L406.117 118.282ZM496.934 85.8163L477.942 133.592L472.211 133.592L453.222 85.8163L458.668 85.8163L475.077 128.397L491.632 85.8163L496.934 85.8163Z" fill="#f2f4ff" fill-rule="nonzero" opacity="1" stroke="none"/>
<path d="M227.016 24.1484C227.016 28.1902 226.044 31.9007 224.099 35.2796C222.154 38.5927 219.167 41.2761 215.138 43.33C211.109 45.3842 206.108 46.411 200.134 46.411L189.089 46.411L189.089 71.4569L171.271 71.4569L171.271 1.68712L200.134 1.68712C205.969 1.68712 210.901 2.64785 214.929 4.56933C218.958 6.4908 221.98 9.14112 223.995 12.5202C226.009 15.8994 227.016 19.7755 227.016 24.1484ZM198.779 32.8945C202.183 32.8945 204.718 32.1325 206.385 30.6086C208.053 29.0847 208.886 26.9313 208.886 24.1484C208.886 21.3657 208.053 19.2123 206.385 17.6884C204.718 16.1644 202.183 15.4025 198.779 15.4025L189.089 15.4025L189.089 32.8945L198.779 32.8945ZM254.109 15.3031L254.109 29.4159L277.97 29.4159L277.97 42.535L254.109 42.535L254.109 57.8404L281.096 57.8404L281.096 71.4569L236.292 71.4569L236.292 1.68712L281.096 1.68712L281.096 15.3031L254.109 15.3031ZM329.965 71.4569L314.753 45.1189L310.481 45.1189L310.481 71.4569L292.663 71.4569L292.663 1.68712L322.568 1.68712C328.333 1.68712 333.231 2.64785 337.26 4.56933C341.358 6.4908 344.412 9.14112 346.429 12.5202C348.442 15.8331 349.451 19.5435 349.451 23.6516C349.451 28.2896 348.06 32.4307 345.282 36.075C342.572 39.7189 338.543 42.3032 333.195 43.8271L350.074 71.4569L329.965 71.4569ZM310.481 33.0934L321.526 33.0934C324.791 33.0934 327.221 32.3313 328.819 30.8074C330.486 29.2835 331.319 27.1301 331.319 24.3472C331.319 21.6969 330.486 19.6098 328.819 18.0859C327.221 16.562 324.791 15.8 321.526 15.8L310.481 15.8L310.481 33.0934ZM409.191 23.7509C407.871 21.4319 405.959 19.6761 403.458 18.4834C401.028 17.2245 398.146 16.5951 394.811 16.5951C389.045 16.5951 384.427 18.4171 380.954 22.0614C377.479 25.6393 375.743 30.443 375.743 36.4723C375.743 42.8994 377.551 47.9349 381.16 51.5791C384.844 55.1568 389.879 56.9462 396.27 56.9462C400.647 56.9462 404.327 55.8858 407.314 53.7654C410.369 51.6455 412.594 48.5974 413.982 44.6221L391.374 44.6221L391.374 32.0995L430.134 32.0995L430.134 47.902C428.815 52.1423 426.554 56.0845 423.359 59.7291C420.235 63.3728 416.239 66.3215 411.379 68.5742C406.517 70.8274 401.028 71.9532 394.915 71.9532C387.69 71.9532 381.231 70.4624 375.535 67.4808C369.909 64.4332 365.496 60.2254 362.301 54.8588C359.177 49.4921 357.614 43.3633 357.614 36.4723C357.614 29.5816 359.177 23.4528 362.301 18.0859C365.496 12.6528 369.909 8.44539 375.535 5.46381C381.16 2.41595 387.586 0.89202 394.811 0.89202C403.562 0.89202 410.927 2.91289 416.9 6.95462C422.942 10.9963 426.939 16.5951 428.883 23.7509L409.191 23.7509ZM474.597 72.152C467.718 72.152 461.395 70.6282 455.631 67.5806C449.937 64.5331 445.387 60.2923 441.983 54.8588C438.648 49.3598 436.98 43.1976 436.98 36.3729C436.98 29.5485 438.648 23.4197 441.983 17.9865C445.387 12.5534 449.937 8.31293 455.631 5.26505C461.395 2.21718 467.718 0.693251 474.597 0.693251C481.472 0.693251 487.758 2.21718 493.457 5.26505C499.222 8.31293 503.736 12.5534 506.999 17.9865C510.333 23.4197 512 29.5485 512 36.3729C512 43.1976 510.333 49.3598 506.999 54.8588C503.665 60.2923 499.151 64.5331 493.457 67.5806C487.758 70.6282 481.472 72.152 474.597 72.152ZM474.597 56.6481C480.431 56.6481 485.083 54.7929 488.556 51.0818C492.1 47.3719 493.872 42.4688 493.872 36.3729C493.872 30.2111 492.1 25.308 488.556 21.6638C485.083 17.9534 480.431 16.0982 474.597 16.0982C468.691 16.0982 463.969 17.9203 460.425 21.5644C456.953 25.2086 455.214 30.1448 455.214 36.3729C455.214 42.535 456.953 47.4711 460.425 51.1817C463.969 54.8253 468.691 56.6481 474.597 56.6481Z" fill="#f2f4ff" fill-rule="nonzero" opacity="0.97" stroke="none"/>
</g>
</g>
</svg>
