<?xml version="1.0" encoding="UTF-8" standalone="no"?>
<!DOCTYPE svg PUBLIC "-//W3C//DTD SVG 1.1//EN" "http://www.w3.org/Graphics/SVG/1.1/DTD/svg11.dtd">
<!-- Created with Vectornator (http://vectornator.io/) -->
<svg stroke-miterlimit="10" style="fill-rule:nonzero;clip-rule:evenodd;stroke-linecap:round;stroke-linejoin:round;" version="1.1" viewBox="0 0 512 512" xml:space="preserve" xmlns="http://www.w3.org/2000/svg" xmlns:xlink="http://www.w3.org/1999/xlink">
<defs>
<linearGradient gradientTransform="matrix(1 0 0 1 0 0)" gradientUnits="userSpaceOnUse" id="LinearGradient" x1="164" x2="250" y1="254" y2="254">
<stop offset="0" stop-color="#f2f4ff"/>
<stop offset="1" stop-color="#f2f4ff"/>
</linearGradient>
<linearGradient gradientTransform="matrix(1 0 0 1 0 0)" gradientUnits="userSpaceOnUse" id="LinearGradient_2" x1="250" x2="336" y1="254" y2="254">
<stop offset="0" stop-color="#dadce6"/>
<stop offset="1" stop-color="#f2f4ff"/>
</linearGradient>
</defs>
<clipPath id="ArtboardFrame">
<rect height="512" width="512" x="0" y="0"/>
</clipPath>
<g clip-path="url(#ArtboardFrame)" id="Layer-1">
<path d="M2.84217e-14 0L512 0L512 512L2.84217e-14 512L2.84217e-14 0Z" fill="#003163" fill-rule="nonzero" opacity="0" stroke="#003163" stroke-linecap="square" stroke-linejoin="round" stroke-width="2"/>
<g fill="#f2f4ff" opacity="1" stroke="none">
<path d="M186.564 331.318C184.473 331.318 182.633 330.955 181.042 330.227C179.451 329.5 178.201 328.485 177.292 327.182C176.383 325.879 175.898 324.425 175.837 322.819L179.201 322.819C179.352 324.364 180.034 325.72 181.246 326.887C182.458 328.053 184.231 328.636 186.564 328.636C188.716 328.636 190.42 328.083 191.678 326.977C192.935 325.871 193.564 324.47 193.564 322.773C193.564 321.409 193.216 320.311 192.519 319.478C191.822 318.644 190.958 318.023 189.928 317.614C188.898 317.205 187.473 316.758 185.655 316.273C183.534 315.698 181.852 315.137 180.61 314.592C179.368 314.046 178.307 313.198 177.428 312.046C176.55 310.895 176.11 309.334 176.11 307.365C176.11 305.728 176.534 304.266 177.383 302.978C178.231 301.691 179.428 300.683 180.974 299.956C182.519 299.229 184.292 298.865 186.292 298.865C189.231 298.865 191.602 299.585 193.405 301.024C195.208 302.463 196.246 304.319 196.518 306.592L193.064 306.592C192.852 305.289 192.14 304.13 190.928 303.115C189.716 302.1 188.079 301.592 186.019 301.592C184.11 301.592 182.519 302.1 181.246 303.115C179.974 304.13 179.337 305.516 179.337 307.274C179.337 308.607 179.686 309.683 180.383 310.501C181.08 311.319 181.951 311.94 182.996 312.364C184.042 312.789 185.458 313.243 187.246 313.728C189.307 314.304 190.973 314.872 192.246 315.432C193.519 315.993 194.594 316.849 195.473 318.001C196.352 319.152 196.791 320.697 196.791 322.637C196.791 324.121 196.397 325.531 195.609 326.864C194.822 328.197 193.655 329.273 192.11 330.091C190.564 330.909 188.716 331.318 186.564 331.318Z"/>
<path d="M235.517 299.229L235.517 301.865L226.7 301.865L226.7 331L223.518 331L223.518 301.865L214.655 301.865L214.655 299.229L235.517 299.229Z"/>
<path d="M272.971 323.455L258.517 323.455L255.744 331L252.381 331L263.971 299.638L267.562 299.638L279.107 331L275.744 331L272.971 323.455ZM272.016 320.819L265.744 303.637L259.472 320.819L272.016 320.819Z"/>
<path d="M323.379 299.229L311.334 331L307.697 331L295.652 299.229L299.107 299.229L309.516 327.546L320.015 299.229L323.379 299.229Z"/>
</g>
<path d="M164 236L164 288L248 280L336 288L336 236L248 220L164 236ZM308.562 239.688C311.562 239.688 314.313 240.387 316.812 241.781C319.312 243.175 321.279 245.109 322.719 247.594C324.158 250.078 324.875 252.879 324.875 256C324.875 259.121 324.142 261.938 322.688 264.438C321.233 266.937 319.266 268.887 316.781 270.281C314.297 271.675 311.562 272.375 308.562 272.375C305.563 272.375 302.812 271.675 300.312 270.281C297.813 268.887 295.813 266.937 294.344 264.438C292.874 261.938 292.156 259.121 292.156 256C292.156 252.879 292.874 250.079 294.344 247.594C295.813 245.109 297.813 243.175 300.312 241.781C302.812 240.387 305.563 239.688 308.562 239.688ZM273.75 239.781C277.568 239.781 280.785 240.714 283.406 242.562C286.027 244.411 287.745 246.946 288.594 250.219L280.031 250.219C279.456 249.158 278.607 248.373 277.531 247.812C276.456 247.252 275.204 246.969 273.75 246.969C271.235 246.969 269.203 247.786 267.688 249.438C266.172 251.089 265.437 253.305 265.438 256.062C265.438 259.002 266.222 261.286 267.812 262.938C269.403 264.589 271.587 265.406 274.375 265.406C276.284 265.406 277.901 264.938 279.219 263.969C280.537 262.999 281.488 261.599 282.094 259.781L272.25 259.781L272.25 254.062L289.156 254.062L289.156 261.281C288.581 263.221 287.598 265.021 286.219 266.688C284.84 268.354 283.09 269.688 280.969 270.719C278.848 271.749 276.448 272.281 273.781 272.281C270.63 272.281 267.813 271.597 265.344 270.219C262.874 268.84 260.972 266.923 259.594 264.469C258.215 262.014 257.531 259.214 257.531 256.062C257.531 252.911 258.215 250.095 259.594 247.625C260.972 245.155 262.889 243.223 265.344 241.844C267.798 240.465 270.599 239.781 273.75 239.781ZM176.25 240.156L188.844 240.156C191.389 240.156 193.524 240.59 195.281 241.469C197.039 242.348 198.371 243.548 199.25 245.094C200.129 246.639 200.562 248.406 200.562 250.406C200.562 252.255 200.13 253.939 199.281 255.469C198.433 256.999 197.133 258.248 195.375 259.188C193.617 260.127 191.45 260.594 188.844 260.594L184.031 260.594L184.031 272.062L176.25 272.062L176.25 240.156ZM204.625 240.156L224.156 240.156L224.156 246.375L212.375 246.375L212.375 252.812L222.781 252.812L222.781 258.812L212.375 258.812L212.375 265.812L224.156 265.812L224.156 272.062L204.625 272.062L204.625 240.156ZM229.188 240.156L242.25 240.156C244.765 240.156 246.915 240.59 248.688 241.469C250.46 242.348 251.777 243.532 252.656 245.062C253.535 246.593 253.969 248.309 253.969 250.188C253.969 252.309 253.384 254.208 252.188 255.875C250.991 257.542 249.208 258.709 246.875 259.406L254.25 272.062L245.469 272.062L238.844 260L236.969 260L236.969 272.062L229.188 272.062L229.188 240.156ZM184.031 246.406L184.031 254.406L188.25 254.406C189.735 254.406 190.835 254.072 191.562 253.375C192.29 252.678 192.656 251.679 192.656 250.406C192.656 249.134 192.29 248.166 191.562 247.469C190.835 246.772 189.735 246.406 188.25 246.406L184.031 246.406ZM236.969 246.594L236.969 254.5L241.781 254.5C243.205 254.5 244.288 254.166 245 253.469C245.712 252.772 246.062 251.773 246.062 250.5C246.062 249.288 245.712 248.353 245 247.656C244.288 246.959 243.205 246.594 241.781 246.594L236.969 246.594ZM308.562 246.719C305.987 246.719 303.936 247.552 302.406 249.219C300.876 250.885 300.094 253.152 300.094 256C300.094 258.818 300.876 261.068 302.406 262.75C303.936 264.432 305.987 265.281 308.562 265.281C311.108 265.281 313.157 264.416 314.688 262.719C316.218 261.022 316.969 258.788 316.969 256C316.969 253.182 316.218 250.932 314.688 249.25C313.157 247.568 311.108 246.719 308.562 246.719Z" fill="#f2f4ff" fill-rule="nonzero" opacity="0" stroke="none"/>
<path d="M164 236L164 288L248 280L336 288L336 236L248 220L164 236ZM308.562 239.688C311.562 239.688 314.313 240.387 316.812 241.781C319.312 243.175 321.279 245.109 322.719 247.594C324.158 250.078 324.875 252.879 324.875 256C324.875 259.121 324.142 261.938 322.688 264.438C321.233 266.937 319.266 268.887 316.781 270.281C314.297 271.675 311.562 272.375 308.562 272.375C305.563 272.375 302.812 271.675 300.312 270.281C297.813 268.887 295.813 266.937 294.344 264.438C292.874 261.938 292.156 259.121 292.156 256C292.156 252.879 292.874 250.079 294.344 247.594C295.813 245.109 297.813 243.175 300.312 241.781C302.812 240.387 305.563 239.688 308.562 239.688ZM273.75 239.781C277.568 239.781 280.785 240.714 283.406 242.562C286.027 244.411 287.745 246.946 288.594 250.219L280.031 250.219C279.456 249.158 278.607 248.373 277.531 247.812C276.456 247.252 275.204 246.969 273.75 246.969C271.235 246.969 269.203 247.786 267.688 249.438C266.172 251.089 265.437 253.305 265.438 256.062C265.438 259.002 266.222 261.286 267.812 262.938C269.403 264.589 271.587 265.406 274.375 265.406C276.284 265.406 277.901 264.938 279.219 263.969C280.537 262.999 281.488 261.599 282.094 259.781L272.25 259.781L272.25 254.062L289.156 254.062L289.156 261.281C288.581 263.221 287.598 265.021 286.219 266.688C284.84 268.354 283.09 269.688 280.969 270.719C278.848 271.749 276.448 272.281 273.781 272.281C270.63 272.281 267.813 271.597 265.344 270.219C262.874 268.84 260.972 266.923 259.594 264.469C258.215 262.014 257.531 259.214 257.531 256.062C257.531 252.911 258.215 250.095 259.594 247.625C260.972 245.155 262.889 243.223 265.344 241.844C267.798 240.465 270.599 239.781 273.75 239.781ZM176.25 240.156L188.844 240.156C191.389 240.156 193.524 240.59 195.281 241.469C197.039 242.348 198.371 243.548 199.25 245.094C200.129 246.639 200.562 248.406 200.562 250.406C200.562 252.255 200.13 253.939 199.281 255.469C198.433 256.999 197.133 258.248 195.375 259.188C193.617 260.127 191.45 260.594 188.844 260.594L184.031 260.594L184.031 272.062L176.25 272.062L176.25 240.156ZM204.625 240.156L224.156 240.156L224.156 246.375L212.375 246.375L212.375 252.812L222.781 252.812L222.781 258.812L212.375 258.812L212.375 265.812L224.156 265.812L224.156 272.062L204.625 272.062L204.625 240.156ZM229.188 240.156L242.25 240.156C244.765 240.156 246.915 240.59 248.688 241.469C250.46 242.348 251.777 243.532 252.656 245.062C253.535 246.593 253.969 248.309 253.969 250.188C253.969 252.309 253.384 254.208 252.188 255.875C250.991 257.542 249.208 258.709 246.875 259.406L254.25 272.062L245.469 272.062L238.844 260L236.969 260L236.969 272.062L229.188 272.062L229.188 240.156ZM184.031 246.406L184.031 254.406L188.25 254.406C189.735 254.406 190.835 254.072 191.562 253.375C192.29 252.678 192.656 251.679 192.656 250.406C192.656 249.134 192.29 248.166 191.562 247.469C190.835 246.772 189.735 246.406 188.25 246.406L184.031 246.406ZM236.969 246.594L236.969 254.5L241.781 254.5C243.205 254.5 244.288 254.166 245 253.469C245.712 252.772 246.062 251.773 246.062 250.5C246.062 249.288 245.712 248.353 245 247.656C244.288 246.959 243.205 246.594 241.781 246.594L236.969 246.594ZM308.562 246.719C305.987 246.719 303.936 247.552 302.406 249.219C300.876 250.885 300.094 253.152 300.094 256C300.094 258.818 300.876 261.068 302.406 262.75C303.936 264.432 305.987 265.281 308.562 265.281C311.108 265.281 313.157 264.416 314.688 262.719C316.218 261.022 316.969 258.788 316.969 256C316.969 253.182 316.218 250.932 314.688 249.25C313.157 247.568 311.108 246.719 308.562 246.719Z" fill="#f2f4ff" fill-rule="nonzero" opacity="1" stroke="none"/>
<g opacity="0">
<path d="M164 334.938C163.994 334.937 164 335.411 164 336C164 336.589 163.994 337.062 164 337.062C184.165 341.221 204.329 345.372 224.5 349.5C230.915 350.813 237.33 352.151 243.75 353.438C245.583 353.805 247.415 354.176 249.25 354.531C250.165 354.708 251.068 355.037 252 355.031C252.446 355.029 252.876 354.839 253.312 354.75C254.189 354.571 255.063 354.377 255.938 354.188C257.688 353.809 259.438 353.446 261.188 353.062C267.31 351.721 273.434 350.377 279.562 349.062C298.368 345.028 317.184 341.047 336 337.062C336.006 337.062 336 336.586 336 336C336 335.414 336.006 334.938 336 334.938C316.753 338.194 297.506 341.457 278.25 344.656C272.127 345.674 266.002 346.664 259.875 347.656C258.125 347.94 256.374 348.24 254.625 348.531C254.187 348.604 253.749 348.673 253.312 348.75C252.874 348.827 252.445 348.971 252 348.969C251.534 348.966 251.084 348.802 250.625 348.719C250.167 348.636 249.709 348.547 249.25 348.469C246.961 348.079 244.667 347.715 242.375 347.344C235.96 346.304 229.543 345.302 223.125 344.281C203.42 341.148 183.71 338.04 164 334.938Z" fill="#f2f4ff" stroke="none"/>
</g>
<path d="M248 362L164 344L164 342L248 354L336 342L336 344L248 362Z" fill="#f2f4ff" fill-rule="nonzero" opacity="1" stroke="none"/>
<path d="M250.015 362L250.015 354L164 342L164 344L250.015 362Z" fill="#f2f4ff" fill-rule="nonzero" opacity="0" stroke="none"/>
<path d="M250 362L250 354L336 342L336 344L250 362Z" fill="#dadce6" fill-rule="nonzero" opacity="0" stroke="none"/>
<path d="M250 220L164 236L164 288L250 280L250 272L245.562 272L238.938 259.969L237.062 259.969L237.062 272L229.281 272L229.281 240.094L242.344 240.094C244.859 240.094 247.009 240.527 248.781 241.406C249.246 241.637 249.596 241.943 250 242.219L250 220ZM176.344 240.094L188.938 240.094C191.483 240.094 193.618 240.527 195.375 241.406C197.133 242.285 198.465 243.486 199.344 245.031C200.223 246.577 200.656 248.375 200.656 250.375C200.656 252.223 200.223 253.907 199.375 255.438C198.527 256.968 197.226 258.186 195.469 259.125C193.711 260.064 191.543 260.531 188.938 260.531L184.125 260.531L184.125 272L176.344 272L176.344 240.094ZM204.719 240.094L224.25 240.094L224.25 246.312L212.469 246.312L212.469 252.781L222.875 252.781L222.875 258.781L212.469 258.781L212.469 265.781L224.25 265.781L224.25 272L204.719 272L204.719 240.094ZM250 258C249.13 258.574 248.111 259.034 246.969 259.375L250 264.562L250 258ZM184.125 246.375L184.125 254.375L188.344 254.375C189.829 254.375 190.929 254.009 191.656 253.312C192.383 252.616 192.75 251.648 192.75 250.375C192.75 249.102 192.384 248.103 191.656 247.406C190.929 246.709 189.829 246.375 188.344 246.375L184.125 246.375ZM237.062 246.531L237.062 254.469L241.875 254.469C243.299 254.469 244.382 254.103 245.094 253.406C245.806 252.709 246.156 251.741 246.156 250.469C246.156 249.257 245.806 248.291 245.094 247.594C244.382 246.897 243.299 246.531 241.875 246.531L237.062 246.531Z" fill="url(#LinearGradient)" fill-rule="nonzero" opacity="0" stroke="none"/>
<path d="M250 220L250 242.219C251.134 242.993 252.102 243.903 252.75 245.031C253.629 246.561 254.063 248.246 254.062 250.125C254.062 252.246 253.478 254.146 252.281 255.812C251.67 256.663 250.907 257.402 250 258L250 264.562L254.344 272L250 272L250 280L336 288L336 236L250 220ZM308.656 239.625C311.656 239.625 314.406 240.325 316.906 241.719C319.406 243.113 321.373 245.047 322.812 247.531C324.252 250.016 324.969 252.848 324.969 255.969C324.969 259.09 324.236 261.875 322.781 264.375C321.327 266.875 319.36 268.825 316.875 270.219C314.39 271.613 311.656 272.312 308.656 272.312C305.656 272.312 302.906 271.613 300.406 270.219C297.906 268.825 295.907 266.875 294.438 264.375C292.968 261.875 292.25 259.09 292.25 255.969C292.25 252.848 292.968 250.016 294.438 247.531C295.907 245.047 297.906 243.113 300.406 241.719C302.906 240.325 305.656 239.625 308.656 239.625ZM273.844 239.719C277.662 239.719 280.879 240.652 283.5 242.5C286.121 244.348 287.839 246.915 288.688 250.188L280.125 250.188C279.549 249.127 278.701 248.311 277.625 247.75C276.549 247.189 275.298 246.906 273.844 246.906C271.329 246.906 269.296 247.724 267.781 249.375C266.266 251.026 265.531 253.243 265.531 256C265.531 258.939 266.315 261.224 267.906 262.875C269.497 264.526 271.681 265.375 274.469 265.375C276.378 265.375 277.994 264.876 279.312 263.906C280.631 262.937 281.613 261.537 282.219 259.719L272.344 259.719L272.344 254L289.25 254L289.25 261.219C288.674 263.158 287.691 264.958 286.312 266.625C284.934 268.292 283.184 269.657 281.062 270.688C278.941 271.718 276.542 272.219 273.875 272.219C270.724 272.219 267.938 271.535 265.469 270.156C262.999 268.778 261.066 266.861 259.688 264.406C258.309 261.952 257.625 259.151 257.625 256C257.625 252.849 258.309 250.032 259.688 247.562C261.066 245.093 262.983 243.16 265.438 241.781C267.892 240.403 270.692 239.719 273.844 239.719ZM308.656 246.688C306.081 246.688 304.03 247.521 302.5 249.188C300.97 250.854 300.188 253.12 300.188 255.969C300.188 258.787 300.97 261.037 302.5 262.719C304.03 264.4 306.081 265.219 308.656 265.219C311.202 265.219 313.251 264.384 314.781 262.688C316.311 260.991 317.063 258.757 317.062 255.969C317.062 253.151 316.311 250.901 314.781 249.219C313.251 247.537 311.202 246.687 308.656 246.688Z" fill="url(#LinearGradient_2)" fill-rule="nonzero" opacity="0" stroke="none"/>
</g>
</svg>
