<?xml version="1.0" encoding="UTF-8" standalone="no"?>
<!DOCTYPE svg PUBLIC "-//W3C//DTD SVG 1.1//EN" "http://www.w3.org/Graphics/SVG/1.1/DTD/svg11.dtd">
<!-- Created with Vectornator (http://vectornator.io/) -->
<svg stroke-miterlimit="10" style="fill-rule:nonzero;clip-rule:evenodd;stroke-linecap:round;stroke-linejoin:round;" version="1.1" viewBox="0 0 1080 281.846" xml:space="preserve" xmlns="http://www.w3.org/2000/svg" xmlns:xlink="http://www.w3.org/1999/xlink">
<defs/>
<clipPath id="ArtboardFrame">
<rect height="281.846" width="1080" x="0" y="0"/>
</clipPath>
<g clip-path="url(#ArtboardFrame)" id="0184bebb-2018-4bac-9767-8a4d5d1015c3">
<path d="M0 0L1080 0L1080 0L1080 1080L1080 1080L0 1080L0 1080L0 0L0 0Z" fill="#ffffff" fill-rule="nonzero" opacity="0" stroke="none"/>
</g>
<g id="Untitled">
<g opacity="1">
<path d="M4.07596 242.753L4.06589 0L124.008 0.32426L123.992 215.45L97.7958 214.913L98.4131 24.1379L30.2404 23.7167L30.2755 235.199L4.07596 242.753Z" fill="#224d7f" fill-rule="nonzero" opacity="1" stroke="none"/>
<path d="M56.4424 225.398L57.0834 121.513L194.64 48.0019L323.681 115.96L291.993 116.033L194.833 63.4543L71.9869 129.658L72.8399 219.314L56.4424 225.398Z" fill="#badaff" fill-rule="nonzero" opacity="1" stroke="none"/>
<path d="M4.06589 242.521C4.06589 242.521 130.747 192.426 224.906 192.426C319.064 192.426 372.946 220.342 475.237 199.99C475.237 199.99 441.279 227.088 274.705 210.211C165.411 199.137 4.06589 242.521 4.06589 242.521Z" fill="#badaff" fill-rule="nonzero" opacity="1" stroke="none"/>
<path d="M4.29496 250.93C4.29496 250.93 79.2854 217.441 226.777 216.301C313.636 215.632 350.07 233.297 399.345 224.017C399.345 224.017 414.758 235.292 268.595 227.586C144.779 221.057 4.29496 250.93 4.29496 250.93Z" fill="#224d7f" fill-rule="nonzero" opacity="1" stroke="none"/>
<path d="M531.169 280.675C524.269 280.675 518.169 279.531 512.868 277.241C507.668 274.952 503.567 271.756 500.567 267.654C497.567 263.552 495.967 258.973 495.767 253.917L506.868 253.917C507.368 258.783 509.618 263.075 513.619 266.795C517.618 270.421 523.469 272.233 531.169 272.233C538.271 272.233 543.871 270.516 547.972 267.082C552.172 263.552 554.271 259.116 554.271 253.774C554.271 249.482 553.121 246.048 550.822 243.472C548.521 240.801 545.671 238.846 542.27 237.606C538.871 236.27 534.171 234.839 528.17 233.313C521.169 231.5 515.618 229.735 511.518 228.019C507.417 226.302 503.917 223.63 501.017 220.006C498.116 216.381 496.668 211.467 496.668 205.267C496.668 200.117 498.067 195.538 500.867 191.53C503.668 187.428 507.618 184.233 512.718 181.944C517.819 179.655 523.67 178.509 530.27 178.509C539.971 178.509 547.771 180.799 553.672 185.378C559.673 189.861 563.123 195.681 564.023 202.834L552.622 202.834C551.921 198.733 549.571 195.108 545.571 191.96C541.571 188.717 536.171 187.096 529.369 187.096C523.069 187.096 517.819 188.717 513.619 191.96C509.418 195.108 507.318 199.448 507.318 204.981C507.318 209.179 508.468 212.565 510.769 215.141C513.069 217.716 515.918 219.672 519.319 221.007C522.819 222.343 527.519 223.773 533.42 225.3C540.22 227.112 545.721 228.925 549.922 230.737C554.122 232.454 557.672 235.126 560.573 238.75C563.473 242.374 564.923 247.24 564.923 253.345C564.923 258.019 563.622 262.455 561.022 266.652C558.422 270.849 554.572 274.236 549.472 276.812C544.372 279.388 538.271 280.675 531.169 280.675ZM713.323 179.655L713.323 187.953L684.223 187.953L684.223 279.673L673.722 279.673L673.722 187.953L644.469 187.953L644.469 179.655L713.323 179.655ZM857.417 255.921L809.713 255.921L800.561 279.673L789.46 279.673L827.714 180.942L839.565 180.942L877.668 279.673L866.567 279.673L857.417 255.921ZM854.266 247.622L833.564 193.534L812.862 247.622L854.266 247.622ZM1044.39 179.655L1004.63 279.673L992.632 279.673L952.879 179.655L964.28 179.655L998.632 268.798L1033.29 179.655L1044.39 179.655Z" fill="#f2f4ff" fill-rule="nonzero" opacity="1" stroke="none"/>
<path d="M479.321 50.5544C479.321 59.0158 477.285 66.7836 473.213 73.8574C469.142 80.7933 462.888 86.4108 454.454 90.7107C446.019 95.0111 435.549 97.1607 423.043 97.1607L399.921 97.1607L399.921 149.594L362.62 149.594L362.62 3.53195L423.043 3.53195C435.259 3.53195 445.583 5.54324 454.017 9.56582C462.452 13.5884 468.777 19.1368 472.995 26.2109C477.212 33.2851 479.321 41.3996 479.321 50.5544ZM420.207 68.8642C427.332 68.8642 432.64 67.2688 436.13 64.0787C439.621 60.8884 441.366 56.3803 441.366 50.5544C441.366 44.7287 439.621 40.2206 436.13 37.0303C432.64 33.84 427.332 32.2448 420.207 32.2448L399.921 32.2448L399.921 68.8642L420.207 68.8642ZM536.04 32.0368L536.04 61.5818L585.992 61.5818L585.992 89.0463L536.04 89.0463L536.04 121.088L592.536 121.088L592.536 149.594L498.739 149.594L498.739 3.53195L592.536 3.53195L592.536 32.0368L536.04 32.0368ZM694.843 149.594L662.996 94.4557L654.053 94.4557L654.053 149.594L616.752 149.594L616.752 3.53195L679.356 3.53195C691.425 3.53195 701.68 5.54324 710.114 9.56582C718.693 13.5884 725.088 19.1368 729.309 26.2109C733.524 33.1464 735.637 40.9141 735.637 49.5142C735.637 59.2238 732.725 67.8931 726.909 75.5224C721.236 83.151 712.801 88.5611 701.604 91.7514L736.94 149.594L694.843 149.594ZM654.053 69.2805L677.175 69.2805C684.01 69.2805 689.099 67.6851 692.444 64.4948C695.934 61.3045 697.677 56.7964 697.677 50.9705C697.677 45.4222 695.934 41.0528 692.444 37.8625C689.099 34.6722 684.01 33.077 677.175 33.077L654.053 33.077L654.053 69.2805ZM860.7 49.7222C857.938 44.8674 853.935 41.1916 848.698 38.6948C843.612 36.0593 837.578 34.7416 830.596 34.7416C818.526 34.7416 808.857 38.556 801.588 46.1851C794.312 53.6755 790.678 63.7319 790.678 76.3543C790.678 89.8092 794.463 100.351 802.018 107.98C809.73 115.47 820.271 119.216 833.65 119.216C842.815 119.216 850.519 116.996 856.772 112.557C863.168 108.119 867.826 101.738 870.73 93.4157L823.401 93.4157L823.401 67.1998L904.545 67.1998L904.545 100.282C901.783 109.159 897.05 117.412 890.362 125.042C883.822 132.67 875.455 138.843 865.282 143.559C855.102 148.276 843.612 150.633 830.814 150.633C815.689 150.633 802.167 147.512 790.242 141.27C778.465 134.89 769.227 126.081 762.537 114.846C755.998 103.611 752.725 90.7803 752.725 76.3543C752.725 61.9287 755.998 49.0981 762.537 37.8625C769.227 26.4884 778.465 17.6803 790.242 11.4384C802.018 5.05776 815.471 1.86743 830.596 1.86743C848.917 1.86743 864.335 6.09808 876.84 14.5594C889.489 23.0206 897.856 34.7416 901.926 49.7222L860.7 49.7222ZM997.628 151.049C983.226 151.049 969.99 147.859 957.922 141.479C946.003 135.099 936.477 126.221 929.351 114.846C922.368 103.334 918.877 90.4336 918.877 76.1461C918.877 61.8593 922.368 49.0287 929.351 37.6544C936.477 26.2803 946.003 17.403 957.922 11.0223C969.99 4.64163 983.226 1.45131 997.628 1.45131C1012.02 1.45131 1025.18 4.64163 1037.11 11.0223C1049.18 17.403 1058.63 26.2803 1065.46 37.6544C1072.44 49.0287 1075.93 61.8593 1075.93 76.1461C1075.93 90.4336 1072.44 103.334 1065.46 114.846C1058.48 126.221 1049.03 135.099 1037.11 141.479C1025.18 147.859 1012.02 151.049 997.628 151.049ZM997.628 118.592C1009.84 118.592 1019.58 114.708 1026.85 106.939C1034.27 99.1724 1037.98 88.9078 1037.98 76.1461C1037.98 63.2464 1034.27 52.9819 1026.85 45.3529C1019.58 37.5852 1009.84 33.7013 997.628 33.7013C985.264 33.7013 975.378 37.5158 967.959 45.1448C960.69 52.7739 957.049 63.1077 957.049 76.1461C957.049 89.0463 960.69 99.38 967.959 107.148C975.378 114.776 985.264 118.592 997.628 118.592Z" fill="#f2f4ff" fill-rule="nonzero" opacity="0.97" stroke="none"/>
</g>
</g>
</svg>
