<svg xmlns="http://www.w3.org/2000/svg" viewBox="0 0 354.19 195"><defs><style>.cls-1,.cls-2,.cls-3,.cls-4{fill:#fff;}.cls-2,.cls-3,.cls-4{stroke:#fff;stroke-miterlimit:10;}.cls-2{stroke-width:0.79px;}.cls-3{stroke-width:0.49px;}.cls-4{stroke-width:0.74px;}</style></defs><title>Asset 3</title><g id="Layer_2" data-name="Layer 2"><g id="Layer_3" data-name="Layer 3"><polygon class="cls-1" points="0.03 162.74 0.03 146.37 0.03 145.74 0.03 0 19.79 0 19.79 157.21 19.79 162.74 0.03 162.74"/><rect class="cls-1" x="81.86" width="19.76" height="74.85"/><rect class="cls-1" x="16.47" width="67.25" height="14.07"/><path class="cls-2" d="M82.35,151l.54-7,.75-15.48L84,117.32c0-1,0-2,0-3.1q0-1.14,0-3.45,3.81.06,6.2.06c1.28,0,3,0,5.32-.09s4.07-.08,5.4-.08a22.41,22.41,0,0,1,6.06.59,9.82,9.82,0,0,1,3.61,2,9.16,9.16,0,0,1,2.36,3.33,12.39,12.39,0,0,1,.89,4.69,12.93,12.93,0,0,1-1.92,6.92,11.87,11.87,0,0,1-5.33,4.64A18.23,18.23,0,0,1,99,134.4a24.07,24.07,0,0,1-4.33-.42c-.44-2-.93-4-1.49-5.75a17.66,17.66,0,0,0,3.66.39,11.39,11.39,0,0,0,4.29-.74,6.07,6.07,0,0,0,2.89-2.41,6.82,6.82,0,0,0,1.07-3.76,5.64,5.64,0,0,0-.45-2.27,4,4,0,0,0-1.3-1.65,5,5,0,0,0-1.87-.84,14.64,14.64,0,0,0-2.93-.22c-1.12,0-2.24,0-3.37.06s-2.13.06-3,.06q-.35,5.78-.53,11.06l-.36,11.26q-.16,6-.17,8.79c0,.71,0,1.73,0,3.07L86.83,151Z"/><path class="cls-2" d="M118.26,151l.86-11.3.63-13.06.39-11.89v-4q7.36.06,15.37.06l5.73,0,8.63,0-.36,6.37-2.84-.14c-.77,0-1.85-.07-3.22-.09s-2.78,0-4.21,0h-6c-.91,0-2.28,0-4.11.11l-.48,10.47q4.08.07,8.24.08c1.91,0,5.13,0,9.67-.17q-.24,2.69-.41,6.43l-9.14-.09c-2.34,0-5.27.06-8.77.17l-.48,11,3.28,0,6.57-.06,6.47-.11,4.33-.21Q148.1,148,148,151q-7.77-.06-14-.06l-9.82,0Z"/><path class="cls-2" d="M155.57,151q.9-8.79,1.35-20.2t.45-20.06q3.57.06,6,.06c1.73,0,3.43,0,5.09-.09s3.42-.08,5.27-.08a44.29,44.29,0,0,1,6.19.38,11.59,11.59,0,0,1,4.85,1.77,8.88,8.88,0,0,1,3.14,3.36,9.78,9.78,0,0,1,1,4.6,12.34,12.34,0,0,1-.38,3.14,11.46,11.46,0,0,1-1.15,2.8,9.85,9.85,0,0,1-1.81,2.3,11.09,11.09,0,0,1-2.07,1.57,12.39,12.39,0,0,1-2.35,1c-.87.28-2,.61-3.52,1l2,3.89q1,1.86,3.73,6.66l3,5.22c.16.28.63,1.17,1.43,2.69L183,151c-1,0-2.64,0-5.06.06l-3.3-7.85c-.58-1.19-1.28-2.61-2.09-4.24l-3.6-7.17c-.36-.67-.86-1.67-1.5-3a20.81,20.81,0,0,0,3.65.36,12.87,12.87,0,0,0,4.69-.83,6.7,6.7,0,0,0,4.39-6.31,5.36,5.36,0,0,0-.49-2.3,4.25,4.25,0,0,0-1.66-1.8,6.79,6.79,0,0,0-2.77-.94,25.14,25.14,0,0,0-3.23-.21l-2.45,0c-1,0-2.3,0-3.82,0l-.53,12.12L164.71,151l-4.63-.06Z"/><path class="cls-2" d="M217.68,128c2.74,0,5.37.05,7.88.05,3.28,0,6,0,8.2-.05Q233,137.9,232.65,150c-3.3.65-6.29,1.1-9,1.37s-4.94.4-6.81.4a41,41,0,0,1-9.74-1.1,19.45,19.45,0,0,1-7.59-3.53,15.41,15.41,0,0,1-4.73-6.45,22.08,22.08,0,0,1-1.63-8.45,22.46,22.46,0,0,1,1.21-7.34,21.39,21.39,0,0,1,3.58-6.49,20.73,20.73,0,0,1,5.73-4.91,22.31,22.31,0,0,1,7.14-2.68,42.44,42.44,0,0,1,8-.72,67.67,67.67,0,0,1,13.31,1.53q0,3.34.33,7a41.1,41.1,0,0,0-12.74-2.33,22.8,22.8,0,0,0-6.94,1,15,15,0,0,0-5.64,3.2,14,14,0,0,0-3.62,5.37,18.29,18.29,0,0,0-1.23,6.62,15.81,15.81,0,0,0,1.41,6.8,9.9,9.9,0,0,0,4.76,4.64,17.13,17.13,0,0,0,7.67,1.65,28.69,28.69,0,0,0,3.73-.28,27.93,27.93,0,0,0,4.48-1l.49-10.35-2.36,0c-1.34,0-3,0-5.08.09C217.59,131.44,217.68,129.42,217.68,128Z"/><path class="cls-2" d="M263.94,110.07a29.76,29.76,0,0,1,8.53,1.21,19.16,19.16,0,0,1,7.25,3.93,17.92,17.92,0,0,1,4.78,6.36,20.76,20.76,0,0,1,1.61,8.46,25.15,25.15,0,0,1-1.52,8.69,18.19,18.19,0,0,1-4.72,7.13,19.88,19.88,0,0,1-7.77,4.44,32.49,32.49,0,0,1-18.8.12,19.76,19.76,0,0,1-7.58-4.16,16.35,16.35,0,0,1-4.56-6.5,22.66,22.66,0,0,1-1.37-7.95,23.78,23.78,0,0,1,1.72-9,17.69,17.69,0,0,1,5-7.07,22.88,22.88,0,0,1,7.79-4.25A31.09,31.09,0,0,1,263.94,110.07Zm-.48,6.28a14.68,14.68,0,0,0-7.85,2.05,12.87,12.87,0,0,0-5,5.6,17.75,17.75,0,0,0-1.69,7.68,15.57,15.57,0,0,0,1.63,7.07,10.89,10.89,0,0,0,5,4.92,16.36,16.36,0,0,0,12.92.69,12.08,12.08,0,0,0,4.64-3.05,13,13,0,0,0,2.94-4.94,18.39,18.39,0,0,0,1-6,17.8,17.8,0,0,0-.88-5.61,12,12,0,0,0-2.73-4.61,11.38,11.38,0,0,0-4.46-2.86A16.26,16.26,0,0,0,263.46,116.35Z"/><path class="cls-3" d="M291.42,151.06c-.07-1.21-.15-2.2-.25-3a10.31,10.31,0,0,0,4.24,1.06,4.46,4.46,0,0,0,1.43-.23,2,2,0,0,0,1-.66,1.53,1.53,0,0,0,.32-.94,1.7,1.7,0,0,0-.15-.73,3.36,3.36,0,0,0-.76-.92q-.69-.66-2.43-2.16c-.56-.48-.94-.83-1.16-1a9.08,9.08,0,0,1-1.09-1.23,3.68,3.68,0,0,1-.55-1.08,3.85,3.85,0,0,1,.46-3.24,4.12,4.12,0,0,1,1.87-1.54,7.74,7.74,0,0,1,3.14-.56,20,20,0,0,1,3.84.42c0,.83.12,1.77.24,2.84a9.55,9.55,0,0,0-3.43-.72,3.24,3.24,0,0,0-1.91.53,1.54,1.54,0,0,0-.74,1.24,2,2,0,0,0,.05.4,2,2,0,0,0,.16.4,2.58,2.58,0,0,0,.37.51,5.58,5.58,0,0,0,.77.74c.34.29.64.51.88.69l1.47,1.33c.37.31.71.62,1,.91a9.15,9.15,0,0,1,.75.85,4.74,4.74,0,0,1,.5.77,3.52,3.52,0,0,1,.36,1.58,4.07,4.07,0,0,1-.47,1.89,4,4,0,0,1-1.33,1.46,5.64,5.64,0,0,1-1.91.79,10.32,10.32,0,0,1-2.2.22,13.4,13.4,0,0,1-1.77-.13C293.41,151.47,292.52,151.3,291.42,151.06Z"/><path class="cls-3" d="M307.82,151.4l.26-3.48.27-5.18.16-5.11H306.9l-.73,0-2.75.08c.06-1.14.09-2,.1-2.61l7.19,0h6.57q-.12,1.69-.12,2.61c-1.44-.07-2.82-.11-4.14-.11h-.92l-.14,2.18-.34,8.38,0,1.4c0,.58,0,1.19,0,1.81l-1.81,0Z"/><path class="cls-3" d="M316.26,151.4q1.25-2.19,2.91-5.42l3.14-6q1.47-2.79,2.43-4.83l2.2,0,2.22,0,1.7,4.87,3.7,10.09.52,1.31-1.79,0-2.08,0c-.19-.7-.49-1.66-.9-2.86s-.76-2.17-1.05-2.92H323q-1.39,2.83-2.72,5.78l-1.94,0Zm7.79-8.26h4.56l-1.87-5.52-1,2Z"/><path class="cls-3" d="M341.28,151.4l-.45-1.5-.79-2.28L337.72,141l-2.12-5.91,2,0,1.75,0,.37,1.32c.08.27.2.64.35,1.1l2.89,8.74c.18.56.4,1.31.68,2.23l.65-1.46c.16-.35.48-1.05,1-2.09l3.76-7.85c.11-.23.22-.48.33-.73l.52-1.26,2,0,1.87,0-1,1.91-6.52,12.87-.69,1.49-2.08,0Z"/><rect class="cls-1" x="49.3" y="87.42" width="14.1" height="93.32"/><rect class="cls-1" x="46.89" y="62.39" width="110.67" height="14.1" transform="translate(-20.07 51.68) rotate(-25.93)"/><polygon class="cls-1" points="248.64 87.3 149.11 38.91 142.94 51.59 216.04 87.12 248.64 87.3"/><path class="cls-4" d="M.43,162.11c-.59,1.91,3.26,4.47,7.12,7.06a60.42,60.42,0,0,0,14.35,7.11,266.4,266.4,0,0,0,48.61,12.88c18.66,3.07,33.56,3.44,49.22,3.84,6.39.16,16.79.39,28.17-.35,5.68-.37,14.85-1.31,24.43-2.33h0c1.78-.25,5.06-.72,20.21-3.46,19.26-3.49,21.3-4.05,28.94-5.28,11.4-1.84,21.17-2.89,26.67-3.37,14-1.21,46.51-3.91,82.29,7.65,13.71,4.42,23,9.22,23.24,8.73s-15.43-9.85-35.61-15.92c-14-4.22-25.2-5.43-37-6.65a291.79,291.79,0,0,0-36.56-1.36c-1.92,0-3.84.08-6,.16-15.53.59-29.09,1.83-61.3,5.57-16.83,2-17.75,2.14-22.51,2.48-13.67,1-24.23.81-32.61.65-9.64-.19-19.64-.38-33.08-1.85a208.74,208.74,0,0,1-36.95-6.38c-17.25-4.46-25.87-6.68-31.12-9.18a24.48,24.48,0,0,0-6.79-2.1C10.92,159.48,1.27,159.44.43,162.11Z"/></g></g></svg>